<?xml version="1.0" standalone="no"?>
<!DOCTYPE svg PUBLIC "-//W3C//DTD SVG 20010904//EN"
 "http://www.w3.org/TR/2001/REC-SVG-20010904/DTD/svg10.dtd">
<svg version="1.0" xmlns="http://www.w3.org/2000/svg"
 width="700.000000pt" height="700.000000pt" viewBox="0 0 700.000000 700.000000"
 preserveAspectRatio="xMidYMid meet">
<metadata>
Created by potrace 1.14, written by Peter Selinger 2001-2017
</metadata>
<g transform="translate(0.000000,700.000000) scale(0.100000,-0.100000)"
fill="#000000" stroke="none">
<path d="M1528 6785 c-85 -21 -162 -88 -202 -175 -18 -40 -21 -68 -24 -242
l-4 -198 -262 0 c-203 0 -275 -3 -321 -15 -155 -41 -279 -156 -330 -309 l-26
-77 1 -2572 c0 -1415 3 -2585 5 -2602 23 -170 174 -333 350 -379 73 -19 2969
-20 3048 -1 98 24 178 71 240 142 93 105 117 174 124 346 l6 127 1253 0 1254
0 0 153 c0 193 0 4247 0 4425 l0 132 -1255 0 -1255 0 0 100 c0 54 -5 123 -11
152 -33 159 -161 304 -317 356 -37 13 -108 17 -332 22 l-284 5 -1 180 c-1 99
-5 196 -9 215 -19 77 -90 160 -176 202 l-45 23 -690 1 c-509 1 -702 -2 -737
-11z m1657 -2420 l0 -230 -235 -3 -235 -2 1 232 c1 128 2 234 3 235 0 1 106 1
234 0 l232 -2 0 -230z m1256 217 c1 -21 1 -421 0 -442 -1 -13 -33 -15 -236
-12 l-235 3 0 234 0 235 235 0 c215 -1 235 -2 236 -18z m1257 -219 l2 -233
-235 0 c-150 0 -235 4 -236 10 0 6 0 96 0 200 0 105 0 206 0 225 l1 34 233 -2
232 -2 3 -232z m-2513 -2351 c1 -201 -1 -232 -15 -236 -8 -2 -114 -4 -235 -3
l-220 2 -1 225 c0 124 3 230 7 235 5 6 93 10 236 10 l228 -1 0 -232z m1255
229 c4 -1 5 -315 1 -443 l-1 -26 -235 0 -235 1 0 232 c0 127 2 234 4 236 4 3
451 4 466 0z m1257 -232 l2 -236 -234 -1 -235 -1 -1 70 c0 89 0 273 0 347 l1
57 232 0 233 0 2 -236z"/>
</g>
</svg>
