<?xml version="1.0" encoding="UTF-8"?>
<svg width="384" height="384" version="1.1" viewBox="0 0 101.6 101.6" xmlns="http://www.w3.org/2000/svg" xmlns:xlink="http://www.w3.org/1999/xlink"><defs><linearGradient id="a" x1="394.06299" x2="7285.9399" y1="2880" y2="2880" gradientTransform="matrix(.01322917 0 0 .01322917 62.250214 120.31989)" gradientUnits="userSpaceOnUse" spreadMethod="reflect"><stop stop-color="#ccb000" offset="0"/><stop stop-color="#fd0" offset="1"/></linearGradient></defs><g transform="translate(-62.250247,-107.6199)"><path d="m158.63711 197.16875h-36.46951v2.27934q0 2.82069-2.00868 4.82936-2.00868 2.00868-4.82936 2.00868h-41.028181q-2.820684 0-4.829361-2.00868-2.008678-2.00867-2.008678-4.82936v-72.93901q0-2.82069 2.008678-4.82936 2.008664-2.00867 4.829361-2.00867h6.838039v-4.55869q0-1.93744 1.310627-3.24807 1.310627-1.31062 3.248066-1.31062h18.234759q1.93743 0 3.24806 1.31062 1.31063 1.31063 1.31063 3.24807v4.55869h6.83804q2.82068 0 4.82936 2.00868t2.00868 4.82936v2.27935h36.46951zm-56.9836-13.67607h6.83803v-6.83804h-6.83802zm0-34.19017h6.83803v-6.83803h-6.83802zm18.23474 34.19017h6.83804v-6.83804h-6.83804zm0-34.19017h6.83804v-6.83803h-6.83804zm18.23476 34.19017h6.83802v-6.83804h-6.83802zm0-34.19017h6.83802v-6.83803h-6.83802z" fill="url(#a)" stroke-width=".0132292"/></g></svg>
