<svg xmlns="http://www.w3.org/2000/svg" xmlns:xlink="http://www.w3.org/1999/xlink" version="1.1" viewBox="0 -960 36800 7680"><defs><linearGradient id="a" x1="394.1" x2="7285.9" y1="2880" y2="2880" gradientUnits="userSpaceOnUse" spreadMethod="reflect"><stop offset="0" stop-color="#ccb000"/><stop offset="1" stop-color="#fd0"/></linearGradient><linearGradient id="c" x1="8198.2" x2="36134.2" y1="2880" y2="2880" gradientUnits="userSpaceOnUse"><stop offset=".3" stop-color="#fd0"/><stop offset=".9" stop-color="#ccb000"/></linearGradient><linearGradient xlink:href="#a" id="b" x1="394.1" x2="7285.9" y1="2880" y2="2880" gradientUnits="userSpaceOnUse"/></defs><path fill="url(#b)" d="M7286 5809H4529.1v172.3q0 213.3-151.8 365.1t-365.1 151.8H911q-213.3 0-365.1-151.8t-151.8-365V467.7q0-213.2 151.8-365T910.9-49h517v-344.6q0-146.5 99-245.6t245.5-99h1378.4q146.5 0 245.5 99t99.1 245.6V-49h516.9q213.2 0 365 151.8t151.9 365v172.3h2756.7zM2978.4 4775.3h517v-517h-517zm0-2584.5h517V1674h-517zM4357 4775.3h516.9v-517h-517zm0-2584.5h516.9V1674h-517zm1378.4 2584.5h516.9v-517h-517zm0-2584.5h516.9V1674h-517z"/><g fill="url(#c)" stroke-width="16.8" aria-label="DigitalesFilmmanagement"><path d="M17277.5 535.4q0 387.9-149.2 648.6-147.6 259-428.7 391-281 130.3-676.8 130.3h-650.2v-2296h720.8q361.2 0 626.6 128.9 265.4 127.2 411.5 378.4 146 249.7 146 618.8zm-505.6 12.5q0-254.4-75.4-417.7-73.8-164.9-219.9-243.4-144.5-78.5-358-78.5h-259.2v1495h209q356.4 0 529.1-190 174.4-190 174.4-565.4zM18194.6-50.4v1755.7h-479V-50.4zM17956-738.2q106.8 0 183.8 50.2 77 48.7 77 183.8 0 133.5-77 185.3-77 50.2-183.8 50.2-108.3 0-185.3-50.2-75.3-51.8-75.3-185.3 0-135 75.3-183.8 77-50.2 185.3-50.2zM19210.7 2478q-367.5 0-562.2-128.8-193.2-127.2-193.2-358 0-158.7 99-265.5 99-106.7 290.5-152.3-73.8-31.4-128.8-102-55-72.3-55-152.4 0-100.5 58.2-166.5 58-67.5 168-131.9Q18749 961 18667.3 829q-80-131.9-80-310.9 0-191.6 83.2-325 84.8-135.1 245-205.8 161.7-70.7 392.6-70.7 48.7 0 113 6.3 64.4 6.3 117.8 14.2 55 7.8 73.8 12.5h612.5V193l-274.8 70.7q37.7 58.1 56.5 124 18.8 66 18.8 139.8 0 282.7-197.8 441.3-196.3 157-546.5 157-83.3-4.7-157-12.5-36.2 28.3-55 59.7t-18.9 66q0 34.5 28.3 58 29.8 22 88 34.6 59.6 11 147.6 11h298.3q289 0 439.7 124 152.4 124 152.4 364.4 0 307.8-257.6 477.4-256 169.6-736.5 169.6zm20.4-312.5q171.2 0 293.7-33 124-31.4 190-91.1 66-58.1 66-139.8 0-66-39.3-105.2-37.7-37.7-116.2-53.4-77-15.7-197.9-15.7h-248.1q-88 0-158.6 28.3-69.1 28.3-110 78.5-40.8 51.8-40.8 119.4 0 98.9 94.3 155.4 95.7 56.6 267 56.6zm77-1331.7q135 0 197.8-83.3 62.9-83.2 62.9-226.1 0-158.6-66-237.1-64.4-80.1-194.7-80.1-132 0-197.9 80-66 78.6-66 237.2 0 142.9 64.4 226.1 66 83.3 199.5 83.3zM20993.1-50.4v1755.7h-479V-50.4zm-238.7-687.8q106.8 0 183.8 50.2 77 48.7 77 183.8 0 133.5-77 185.3-77 50.2-183.8 50.2-108.3 0-185.3-50.2-75.4-51.8-75.4-185.3 0-135 75.4-183.8 77-50.2 185.3-50.2zM22235.3 1355.1q78.5 0 152.3-15.7 75.4-15.7 149.2-39.2v356.5q-77 34.5-191.6 56.5-113 23.5-248 23.5-157.1 0-282.8-50.2-124-51.8-196.3-177.5-70.6-127.2-70.6-353.3V309.2h-229.3V106.7L21582-53.5l138.2-370.6h306.3v373.7h491.5v359.6h-491.5v846.5q0 100.5 56.5 150.7 58 48.7 152.3 48.7zM23611-86.5q353.3 0 541.8 153.9 188.4 153.9 188.4 468v1170h-334.5l-92.6-238.8h-12.6q-75.4 94.3-153.9 154-78.5 59.6-180.6 87.9-102 28.2-248.1 28.2-155.5 0-279.5-59.6-122.5-59.7-193.2-182.2-70.7-124-70.7-314 0-279.6 196.3-411.5 196.3-133.5 589-147.6l304.6-9.5v-77q0-138.1-72.2-202.5-72.3-64.4-201-64.4-127.3 0-249.7 36.1-122.5 36.1-245 91.1l-158.6-323.5q139.7-73.8 312.5-116.2 174.3-42.4 359.6-42.4zm254.4 978.4-185.3 6.2q-232.4 6.3-323.5 83.3-89.5 77-89.5 202.6 0 109.9 64.4 157 64.3 45.5 168 45.5 153.9 0 259.1-91 106.8-91.1 106.8-259.2zM25313.3 1705.3h-479V-738.2h479zM26539.8-83.4q243.4 0 419.3 94.3 175.9 92.6 271.7 270 95.8 177.5 95.8 433.5v232.4h-1132.3q7.9 202.6 121 318.8 114.6 114.7 317.2 114.7 168 0 307.8-34.6 139.7-34.5 287.3-103.6v370.6q-130.3 64.4-273.2 94.2-141.3 29.8-344 29.8-263.8 0-468-97.3-202.5-97.4-318.7-296.8-114.6-199.5-114.6-502.6 0-307.8 103.6-512 105.2-205.6 292.1-307.7 186.9-103.7 435-103.7zm3.2 340.8q-139.8 0-232.5 89.5-91 89.5-105.2 281.1h672.1q-1.5-106.8-39.2-190-36.1-83.2-110-131.9-72.2-48.7-185.2-48.7zM28941 1184q0 179-84.8 303-83.3 122.5-249.7 187-166.5 62.7-414.6 62.7-183.8 0-315.7-23.5-130.3-23.6-263.8-78.5v-395.8q143 64.4 306.2 106.8 165 40.8 289 40.8 139.8 0 199.4-40.8 61.3-42.4 61.3-110 0-43.9-25.2-78.4-23.5-36.2-103.6-80.1-80-45.6-251.3-117.8-164.9-69.1-271.6-139.8-105.3-70.6-157-166.4-50.3-97.4-50.3-246.6 0-243.4 188.4-365.9 190-124 507.2-124 163.4 0 311 33Q28765-17.5 28922 54.7l-144.5 345.5q-130.3-56.5-246.5-92.6-114.7-36.2-234-36.2-105.2 0-158.6 28.3-53.4 28.3-53.4 86.4 0 42.4 26.7 75.4 28.3 33 106.8 73.8 80 39.2 234 102 149.2 61.3 259 128.8 110 66 169.7 165 59.7 97.3 59.7 252.8zM8677.2 5725.6h-479v-2296h1316v399h-837v592H9456v397.3h-779zM10404.6 3969.9v1755.7h-479V3969.9zM10166 3282q106.8 0 183.8 50.3 77 48.7 77 183.7 0 133.5-77 185.3-77 50.3-183.8 50.3-108.3 0-185.3-50.3-75.4-51.8-75.4-185.3 0-135 75.4-183.7 77-50.3 185.3-50.3zM11386.1 5725.6h-479V3282h479zM13950.6 3936.9q298.4 0 450.7 153.9 154 152.3 154 490v1144.8h-480.6V4700q0-188.4-64.4-284.2-64.4-95.8-199.4-95.8-190 0-270.2 136.6-80 135-80 387.9v881h-479V4700q0-125.6-28.3-210.4-28.3-84.8-86.4-127.2t-149.2-42.4q-133.4 0-210.4 67.5-75.4 66-108.3 196.3-31.5 128.8-31.5 315.6v826h-479V3970h366l64.4 224.5h26.7q53.4-91 133.4-147.6 81.7-56.5 179-83.2 97.4-26.7 198-26.7 193.1 0 326.6 62.8 135 62.8 207.3 194.7h42.4q78.5-135 221.4-196.3 144.5-61.2 296.8-61.2zM17108.7 3936.9q298.4 0 450.7 153.9 154 152.3 154 490v1144.8h-480.6V4700q0-188.4-64.4-284.2-64.4-95.8-199.5-95.8-190 0-270 136.6-80.2 135-80.2 387.9v881h-479V4700q0-125.6-28.2-210.4-28.3-84.8-86.4-127.2T15876 4320q-133.4 0-210.4 67.5-75.4 66-108.4 196.3-31.4 128.8-31.4 315.6v826h-479V3970h366l64.4 224.5h26.7q53.3-91 133.4-147.6 81.7-56.5 179-83.2 97.4-26.7 198-26.7 193.1 0 326.6 62.8 135 62.8 207.3 194.7h42.4q78.5-135 221.4-196.3 144.5-61.2 296.8-61.2zM18924.1 3933.7q353.3 0 541.8 154t188.4 468v1169.9h-334.5l-92.6-238.7h-12.6q-75.3 94.2-153.9 153.9-78.5 59.7-180.6 88t-248 28.2q-155.6 0-279.6-59.7-122.5-59.7-193.2-182.2-70.7-124-70.7-314 0-279.6 196.3-411.5 196.3-133.5 589-147.6l304.6-9.4v-77q0-138.2-72.2-202.6-72.3-64.3-201-64.3-127.2 0-249.7 36-122.5 36.2-245 91.2l-158.6-323.5q139.7-73.9 312.5-116.3 174.3-42.4 359.6-42.4zm254.4 978.4-185.3 6.3q-232.4 6.3-323.5 83.2-89.5 77-89.5 202.6 0 110 64.4 157 64.4 45.6 168 45.6 154 0 259.1-91 106.8-91.2 106.8-259.2zM21144.7 3936.9q281 0 452.2 153.9 171.2 152.3 171.2 490v1144.8h-479V4700q0-188.4-69-284.2-67.6-95.8-213.6-95.8-219.9 0-300 149.2t-80 430.2v826h-479V3970h365.9l64.3 224.5h26.7q56.6-91 139.8-147.6 84.8-56.5 186.9-83.2 103.6-26.7 213.6-26.7zM22980.5 3933.7q353.3 0 541.8 154t188.4 468v1169.9h-334.5l-92.6-238.7h-12.6q-75.4 94.2-153.9 153.9t-180.6 88q-102 28.2-248.1 28.2-155.5 0-279.6-59.7-122.4-59.7-193.1-182.2-70.7-124-70.7-314 0-279.6 196.3-411.5 196.3-133.5 589-147.6l304.6-9.4v-77q0-138.2-72.3-202.6-72.2-64.3-201-64.3-127.2 0-249.7 36-122.5 36.2-245 91.2l-158.6-323.5q139.8-73.9 312.6-116.3 174.3-42.4 359.6-42.4zm254.4 978.4-185.3 6.3q-232.4 6.3-323.5 83.2-89.5 77-89.5 202.6 0 110 64.3 157 64.4 45.6 168 45.6 154 0 259.2-91 106.8-91.2 106.8-259.2zM24717.3 6498.2q-367.4 0-562.2-128.7-193.1-127.3-193.1-358.1 0-158.6 99-265.4 98.9-106.8 290.4-152.3-73.8-31.4-128.7-102.1-55-72.2-55-152.3 0-100.5 58.1-166.5 58.1-67.5 168-132-138.2-59.6-219.8-191.5-80.1-132-80.1-311 0-191.5 83.2-325 84.8-135 245-205.7 161.8-70.7 392.6-70.7 48.7 0 113 6.3 64.5 6.2 117.9 14.1 55 7.9 73.8 12.6h612.4v243.4l-274.8 70.6q37.7 58.2 56.5 124.1 18.9 66 18.9 139.8 0 282.6-197.9 441.3-196.3 157-546.5 157-83.2-4.7-157-12.6-36.1 28.3-55 59.7t-18.8 66 28.2 58q29.9 22 88 34.6 59.7 11 147.6 11h298.4q289 0 439.7 124 152.3 124.1 152.3 364.4 0 307.8-257.5 477.4-256 169.6-736.6 169.6zm20.5-312.5q171.1 0 293.6-33 124-31.4 190-91 66-58.2 66-139.8 0-66-39.3-105.2-37.6-37.7-116.2-53.4-77-15.7-197.8-15.7h-248.2q-87.9 0-158.6 28.2-69 28.3-109.9 78.6-40.8 51.8-40.8 119.3 0 99 94.2 155.5 95.8 56.5 267 56.5zm77-1331.7q135 0 197.8-83.2 62.8-83.3 62.8-226.2 0-158.6-66-237.1-64.3-80-194.7-80-131.9 0-197.9 80-66 78.5-66 237.1 0 143 64.5 226.2 66 83.2 199.4 83.2zM26744.7 3936.9q243.5 0 419.3 94.2 176 92.7 271.7 270.1 95.8 177.5 95.8 433.5V4967h-1132.2q7.8 202.6 120.9 318.8 114.6 114.6 317.2 114.6 168 0 307.8-34.5 139.8-34.6 287.4-103.7V5633q-130.4 64.4-273.3 94.3-141.3 29.8-343.9 29.8-263.8 0-468-97.4-202.6-97.3-318.8-296.8-114.6-199.4-114.6-502.5 0-307.8 103.6-512 105.3-205.7 292.1-307.8 187-103.6 435-103.6zm3.2 340.8q-139.8 0-232.4 89.5-91.1 89.5-105.3 281h672.2q-1.6-106.7-39.3-190-36-83.2-109.9-131.9-72.2-48.6-185.3-48.6zM29983 3936.9q298.3 0 450.6 153.9 154 152.3 154 490v1144.8H30107V4700q0-188.4-64.4-284.2-64.4-95.8-199.4-95.8-190 0-270.1 136.6-80.1 135-80.1 387.9v881h-479V4700q0-125.6-28.3-210.4-28.2-84.8-86.3-127.2t-149.2-42.4q-133.5 0-210.5 67.5-75.4 66-108.3 196.3-31.4 128.8-31.4 315.6v826h-479V3970h365.9l64.4 224.5h26.7q53.4-91 133.5-147.6 81.6-56.5 179-83.2 97.4-26.7 197.9-26.7 193.1 0 326.6 62.8 135 62.8 207.3 194.7h42.4q78.5-135 221.4-196.3 144.5-61.2 296.8-61.2zM31803 3936.9q243.5 0 419.3 94.2 176 92.7 271.7 270.1 95.8 177.5 95.8 433.5V4967h-1132.3q7.9 202.6 121 318.8 114.6 114.6 317.2 114.6 168 0 307.8-34.5 139.8-34.6 287.4-103.7V5633q-130.4 64.4-273.3 94.3-141.3 29.8-343.9 29.8-263.8 0-468-97.4-202.6-97.3-318.8-296.8-114.6-199.4-114.6-502.5 0-307.8 103.6-512 105.3-205.7 292.1-307.8 187-103.6 435-103.6zm3.2 340.8q-139.8 0-232.4 89.5-91.1 89.5-105.3 281h672.2q-1.6-106.7-39.3-190-36.1-83.2-110-131.9-72.2-48.6-185.2-48.6zM33976.5 3936.9q281 0 452.3 153.9 171.1 152.3 171.1 490v1144.8h-479V4700q0-188.4-69-284.2-67.6-95.8-213.6-95.8-219.9 0-300 149.2t-80 430.2v826h-479V3970h365.9l64.4 224.5h26.7q56.5-91 139.7-147.6 84.8-56.5 187-83.2 103.6-26.7 213.5-26.7zM35832.7 5375.4q78.5 0 152.3-15.7 75.4-15.7 149.2-39.3V5677q-77 34.5-191.6 56.5-113 23.6-248 23.6-157.1 0-282.8-50.3-124-51.8-196.3-177.4-70.6-127.2-70.6-353.4v-846.4h-229.3v-202.6l263.8-160.2 138.2-370.6h306.2V3970h491.6v359.6h-491.6v846.4q0 100.5 56.6 150.8 58 48.7 152.3 48.7z"/></g></svg>